<svg width="853" height="218" viewBox="0 0 853 218" fill="none" xmlns="http://www.w3.org/2000/svg">
<g clip-path="url(#clip0)">
<path fill-rule="evenodd" clip-rule="evenodd" d="M254.899 171.922C225.619 178.331 195.204 181.708 164.001 181.708C133.428 181.708 103.613 178.466 74.8794 172.307L156.585 51.5899C160.625 45.622 169.415 45.622 173.454 51.5899L254.899 171.922Z" fill="#6B7280"/>
<path fill-rule="evenodd" clip-rule="evenodd" d="M253.222 172.288C224.458 178.461 194.608 181.711 163.999 181.711C133.58 181.711 103.91 178.501 75.3105 172.402C54.4817 123.1 29.211 76.1317 0 32H15.8126L253.222 172.288Z" fill="#374151"/>
<path fill-rule="evenodd" clip-rule="evenodd" d="M252.69 172.401C224.089 178.501 194.419 181.711 163.998 181.711C133.589 181.711 103.929 178.503 75.3381 172.408L314.17 32H328C298.789 76.1316 273.518 123.099 252.69 172.401Z" fill="#111827"/>
<path d="M401.76 217.514C420.885 217.514 431.595 207.824 442.05 180.284L479.79 82.874C484.635 70.379 490.46 65.789 506.015 61.964V52.019H452.505V61.964C468.315 65.789 472.905 71.144 459.39 107.099L449.19 133.619C446.895 139.994 443.58 139.994 441.285 133.619L421.14 82.874C416.04 69.869 416.04 65.789 429.3 61.964V52.019H365.55V61.964C376.515 65.789 381.36 70.634 386.205 82.874L419.1 167.534C423.435 178.499 424.455 187.934 421.14 197.369C419.355 202.469 415.785 206.549 410.94 206.549C398.445 206.549 408.9 181.559 388.5 181.559C377.025 181.559 372.69 189.464 372.69 197.114C372.69 209.609 384.93 217.514 401.76 217.514Z" fill="#111827"/>
<path d="M534.042 168.554C552.657 168.554 564.897 158.354 571.272 150.194C573.822 147.389 575.862 147.899 576.117 151.214C577.392 159.119 584.022 168.299 599.832 168.299C607.992 168.299 613 167.434 619.037 167.434V157.234C610.112 158.764 609.777 150.959 609.777 142.544V97.919C609.777 59.669 595.752 49.724 566.682 49.724C537.357 49.724 507.522 60.689 507.522 79.304C507.522 87.464 512.877 94.859 523.587 94.859C532.767 94.859 541.947 89.759 541.947 78.284C541.947 68.594 545.007 60.179 556.737 60.179C569.997 60.179 575.352 68.594 575.352 87.209V89.759C575.352 97.409 573.567 99.194 565.152 100.469C518.232 107.864 500.127 119.594 500.127 140.504C500.127 160.394 516.192 168.554 534.042 168.554ZM550.362 149.429C539.397 149.429 535.062 142.799 535.062 134.129C535.062 125.969 540.417 112.199 565.152 110.414C573.057 109.649 575.352 111.689 575.352 117.554V122.399C575.352 137.699 565.407 149.429 550.362 149.429Z" fill="#111827"/>
<path d="M759.354 142.544V95.114C759.354 57.119 740.994 48.959 722.379 48.959C702.999 48.959 693.309 58.139 686.934 65.279C683.619 69.104 679.029 67.319 679.029 58.139V9.94401C679.029 2.54902 674.949 -1.02098 666.789 0.254018L628.284 7.13902V17.339C638.739 16.319 644.604 18.869 644.604 30.854V140.759C644.604 152.234 640.269 156.059 628.284 157.079V167.024H694.839V157.079C683.364 156.059 679.029 152.234 679.029 140.759V102.254C679.029 83.384 687.954 72.164 703.509 72.164C718.299 72.164 724.929 83.384 724.929 102.254V145.604C724.929 159.884 733.599 168.299 749.154 168.299C756.804 168.299 768.024 166.259 772.359 162.434V152.234C763.689 153.764 759.354 150.959 759.354 142.544Z" fill="#111827"/>
<path d="M825.519 168.299C840.054 168.299 848.469 163.454 853.059 159.374L848.214 150.194C843.879 153.509 838.779 154.529 834.699 154.529C824.754 154.529 822.714 145.094 822.714 134.129V71.144C822.714 65.279 825.264 63.749 830.364 63.749H852.549V52.019H830.364C825.264 52.019 822.714 50.489 822.714 45.134V24.224H808.944C804.354 42.329 794.919 52.274 770.694 55.334V63.749H781.149C786.249 63.749 788.289 65.534 788.289 71.144V127.499C788.289 155.549 800.274 168.299 825.519 168.299Z" fill="#111827"/>
</g>
<defs>
<clipPath id="clip0">
<rect width="853" height="218" fill="white"/>
</clipPath>
</defs>
</svg>
