<svg width="1024" height="1024" viewBox="0 0 1024 1024" fill="none" xmlns="http://www.w3.org/2000/svg">
<path d="M82 380C82 324.614 82.015 284.257 84.5721 252.436C87.1109 220.844 92.0591 199.401 100.982 181.544C118.405 146.675 146.675 118.405 181.544 100.982C199.401 92.0591 220.844 87.1109 252.436 84.5721C284.257 82.015 324.614 82 380 82H644C699.386 82 739.743 82.015 771.564 84.5721C803.156 87.1109 824.599 92.0591 842.456 100.982C877.325 118.405 905.595 146.675 923.018 181.544C931.941 199.401 936.889 220.844 939.428 252.436C941.985 284.257 942 324.614 942 380V644C942 699.386 941.985 739.743 939.428 771.564C936.889 803.156 931.941 824.599 923.018 842.456C905.595 877.325 877.325 905.595 842.456 923.018C824.599 931.941 803.156 936.889 771.564 939.428C739.743 941.985 699.386 942 644 942H380C324.614 942 284.257 941.985 252.436 939.428C220.844 936.889 199.401 931.941 181.544 923.018C146.675 905.595 118.405 877.325 100.982 842.456C92.0591 824.599 87.1109 803.156 84.5721 771.564C82.015 739.743 82 699.386 82 644V380Z" fill="#1F2937"/>
<path d="M82 380C82 324.614 82.015 284.257 84.5721 252.436C87.1109 220.844 92.0591 199.401 100.982 181.544C118.405 146.675 146.675 118.405 181.544 100.982C199.401 92.0591 220.844 87.1109 252.436 84.5721C284.257 82.015 324.614 82 380 82H644C699.386 82 739.743 82.015 771.564 84.5721C803.156 87.1109 824.599 92.0591 842.456 100.982C877.325 118.405 905.595 146.675 923.018 181.544C931.941 199.401 936.889 220.844 939.428 252.436C941.985 284.257 942 324.614 942 380V644C942 699.386 941.985 739.743 939.428 771.564C936.889 803.156 931.941 824.599 923.018 842.456C905.595 877.325 877.325 905.595 842.456 923.018C824.599 931.941 803.156 936.889 771.564 939.428C739.743 941.985 699.386 942 644 942H380C324.614 942 284.257 941.985 252.436 939.428C220.844 936.889 199.401 931.941 181.544 923.018C146.675 905.595 118.405 877.325 100.982 842.456C92.0591 824.599 87.1109 803.156 84.5721 771.564C82.015 739.743 82 699.386 82 644V380Z" fill="url(#paint0_linear)"/>
<path d="M82 380C82 324.614 82.015 284.257 84.5721 252.436C87.1109 220.844 92.0591 199.401 100.982 181.544C118.405 146.675 146.675 118.405 181.544 100.982C199.401 92.0591 220.844 87.1109 252.436 84.5721C284.257 82.015 324.614 82 380 82H644C699.386 82 739.743 82.015 771.564 84.5721C803.156 87.1109 824.599 92.0591 842.456 100.982C877.325 118.405 905.595 146.675 923.018 181.544C931.941 199.401 936.889 220.844 939.428 252.436C941.985 284.257 942 324.614 942 380V644C942 699.386 941.985 739.743 939.428 771.564C936.889 803.156 931.941 824.599 923.018 842.456C905.595 877.325 877.325 905.595 842.456 923.018C824.599 931.941 803.156 936.889 771.564 939.428C739.743 941.985 699.386 942 644 942H380C324.614 942 284.257 941.985 252.436 939.428C220.844 936.889 199.401 931.941 181.544 923.018C146.675 905.595 118.405 877.325 100.982 842.456C92.0591 824.599 87.1109 803.156 84.5721 771.564C82.015 739.743 82 699.386 82 644V380Z" stroke="white" stroke-width="40"/>
<g filter="url(#filter0_dddddd)">
<path fill-rule="evenodd" clip-rule="evenodd" d="M657.771 616.167C610.816 626.444 562.041 631.86 512.001 631.86C462.973 631.86 415.159 626.661 369.081 616.784L500.109 423.195C506.587 413.624 520.683 413.624 527.161 423.195L657.771 616.167Z" fill="#9CA3AF"/>
<path fill-rule="evenodd" clip-rule="evenodd" d="M655.083 616.754C608.954 626.654 561.085 631.865 511.998 631.865C463.216 631.865 415.637 626.718 369.773 616.938C336.371 537.873 295.845 462.552 249 391.78H274.358L655.083 616.754Z" fill="#E5E7EB"/>
<path fill-rule="evenodd" clip-rule="evenodd" d="M654.23 616.937C608.365 626.718 560.784 631.866 512.001 631.866C463.235 631.866 415.669 626.722 369.818 616.947L752.825 391.78H775.003C728.158 462.552 687.633 537.873 654.23 616.937Z" fill="white"/>
</g>
<defs>
<filter id="filter0_dddddd" x="169" y="391.78" width="686.003" height="460.086" filterUnits="userSpaceOnUse" color-interpolation-filters="sRGB">
<feFlood flood-opacity="0" result="BackgroundImageFix"/>
<feColorMatrix in="SourceAlpha" type="matrix" values="0 0 0 0 0 0 0 0 0 0 0 0 0 0 0 0 0 0 127 0"/>
<feOffset dy="3.87416"/>
<feGaussianBlur stdDeviation="1.1069"/>
<feColorMatrix type="matrix" values="0 0 0 0 0 0 0 0 0 0 0 0 0 0 0 0 0 0 0.0253031 0"/>
<feBlend mode="normal" in2="BackgroundImageFix" result="effect1_dropShadow"/>
<feColorMatrix in="SourceAlpha" type="matrix" values="0 0 0 0 0 0 0 0 0 0 0 0 0 0 0 0 0 0 127 0"/>
<feOffset dy="9.31014"/>
<feGaussianBlur stdDeviation="2.66004"/>
<feColorMatrix type="matrix" values="0 0 0 0 0 0 0 0 0 0 0 0 0 0 0 0 0 0 0.0363503 0"/>
<feBlend mode="normal" in2="effect1_dropShadow" result="effect2_dropShadow"/>
<feColorMatrix in="SourceAlpha" type="matrix" values="0 0 0 0 0 0 0 0 0 0 0 0 0 0 0 0 0 0 127 0"/>
<feOffset dy="17.5302"/>
<feGaussianBlur stdDeviation="5.00862"/>
<feColorMatrix type="matrix" values="0 0 0 0 0 0 0 0 0 0 0 0 0 0 0 0 0 0 0.045 0"/>
<feBlend mode="normal" in2="effect2_dropShadow" result="effect3_dropShadow"/>
<feColorMatrix in="SourceAlpha" type="matrix" values="0 0 0 0 0 0 0 0 0 0 0 0 0 0 0 0 0 0 127 0"/>
<feOffset dy="31.2708"/>
<feGaussianBlur stdDeviation="8.93452"/>
<feColorMatrix type="matrix" values="0 0 0 0 0 0 0 0 0 0 0 0 0 0 0 0 0 0 0.0536497 0"/>
<feBlend mode="normal" in2="effect3_dropShadow" result="effect4_dropShadow"/>
<feColorMatrix in="SourceAlpha" type="matrix" values="0 0 0 0 0 0 0 0 0 0 0 0 0 0 0 0 0 0 127 0"/>
<feOffset dy="58.4887"/>
<feGaussianBlur stdDeviation="16.711"/>
<feColorMatrix type="matrix" values="0 0 0 0 0 0 0 0 0 0 0 0 0 0 0 0 0 0 0.0646969 0"/>
<feBlend mode="normal" in2="effect4_dropShadow" result="effect5_dropShadow"/>
<feColorMatrix in="SourceAlpha" type="matrix" values="0 0 0 0 0 0 0 0 0 0 0 0 0 0 0 0 0 0 127 0"/>
<feOffset dy="140"/>
<feGaussianBlur stdDeviation="40"/>
<feColorMatrix type="matrix" values="0 0 0 0 0 0 0 0 0 0 0 0 0 0 0 0 0 0 0.09 0"/>
<feBlend mode="normal" in2="effect5_dropShadow" result="effect6_dropShadow"/>
<feBlend mode="normal" in="SourceGraphic" in2="effect6_dropShadow" result="shape"/>
</filter>
<linearGradient id="paint0_linear" x1="512" y1="111" x2="512" y2="962" gradientUnits="userSpaceOnUse">
<stop stop-color="white" stop-opacity="0.09"/>
<stop offset="0.479167" stop-opacity="0"/>
<stop offset="1" stop-opacity="0.2"/>
</linearGradient>
</defs>
</svg>
